<?xml version="1.0" standalone="no"?>
<!DOCTYPE svg PUBLIC "-//W3C//DTD SVG 20010904//EN"
 "http://www.w3.org/TR/2001/REC-SVG-20010904/DTD/svg10.dtd">
<svg version="1.0" xmlns="http://www.w3.org/2000/svg"
 width="1088.000000pt" height="1088.000000pt" viewBox="0 0 1088.000000 1088.000000"
 preserveAspectRatio="xMidYMid meet">
<metadata>
Created by potrace 1.14, written by Peter Selinger 2001-2017
</metadata>
<g transform="translate(0.000000,1088.000000) scale(0.100000,-0.100000)"
fill="#000000" stroke="none">
<path d="M8877 7785 c-1 -1 -47 -5 -102 -9 -55 -3 -109 -8 -120 -10 -11 -2
-47 -7 -80 -12 -33 -4 -62 -8 -65 -9 -16 -4 -68 -16 -85 -19 -63 -13 -213 -63
-295 -98 -99 -42 -253 -121 -270 -138 -3 -3 -32 -23 -64 -45 -75 -51 -227
-200 -289 -285 -27 -36 -55 -73 -62 -82 -8 -10 -12 -18 -9 -18 3 0 -3 -12 -14
-27 -22 -33 -88 -178 -98 -218 -1 -5 -9 -30 -17 -55 -70 -204 -79 -589 -20
-810 25 -96 98 -260 123 -280 3 -3 19 -23 35 -45 44 -61 194 -205 213 -205 6
0 12 -3 14 -8 7 -17 130 -91 238 -144 156 -75 208 -97 371 -156 60 -22 344
-111 370 -117 9 -2 39 -11 65 -20 27 -9 60 -19 73 -21 14 -3 28 -7 33 -10 4
-3 18 -7 30 -9 13 -3 32 -9 43 -14 11 -5 85 -30 165 -56 240 -77 394 -164 460
-259 48 -70 62 -175 34 -262 -59 -188 -318 -277 -696 -240 -163 16 -184 19
-323 52 -22 6 -22 6 -85 23 -61 17 -280 89 -305 100 -11 5 -38 16 -60 24 -105
39 -446 218 -453 238 -2 5 -8 9 -14 9 -6 0 -31 16 -55 36 -25 20 -48 33 -53
28 -24 -26 -450 -894 -444 -907 3 -8 13 -17 22 -20 18 -6 74 -38 82 -48 5 -6
119 -69 190 -106 198 -103 556 -233 780 -283 67 -15 185 -39 215 -45 17 -2 41
-7 55 -10 14 -3 50 -7 80 -11 30 -3 66 -7 80 -9 109 -19 585 -27 710 -12 30 3
75 9 100 12 25 2 56 7 70 10 14 2 41 7 60 10 30 5 80 16 143 31 9 2 26 6 36 8
11 3 30 10 43 17 13 7 23 11 23 9 0 -2 25 5 55 15 91 29 259 114 355 179 108
73 295 254 295 286 0 6 3 10 8 10 10 0 68 97 108 180 42 89 86 236 100 335 23
165 22 482 -1 547 -2 7 -6 24 -9 38 -19 106 -69 247 -112 312 -13 21 -24 41
-24 46 0 5 -9 17 -20 27 -11 10 -20 22 -20 27 0 9 -5 15 -88 104 -130 139
-324 260 -587 368 -38 16 -84 35 -102 43 -17 8 -37 15 -45 17 -7 1 -17 4 -23
8 -11 6 -312 99 -322 99 -2 0 -17 5 -35 10 -18 6 -53 16 -78 24 -25 7 -85 25
-135 40 -49 14 -98 28 -108 30 -18 4 -73 21 -112 35 -11 4 -60 20 -110 36
-105 33 -247 104 -310 154 -79 63 -117 170 -103 289 13 112 65 189 167 246 46
27 119 54 161 61 14 2 41 7 60 10 48 9 282 9 350 1 73 -9 179 -32 265 -58 39
-11 79 -23 90 -26 11 -2 29 -8 40 -13 11 -4 47 -18 80 -30 33 -13 78 -31 100
-40 22 -10 71 -32 109 -49 83 -37 233 -122 299 -168 27 -19 50 -33 51 -31 4 4
95 177 156 293 29 55 70 133 91 173 22 39 56 105 78 145 21 39 59 111 84 158
43 81 45 88 29 102 -17 15 -382 198 -382 192 0 -2 -26 9 -57 24 -32 16 -69 32
-83 36 -14 4 -29 11 -35 15 -10 8 -295 107 -331 115 -10 2 -64 16 -119 30 -55
14 -109 27 -120 30 -11 2 -20 4 -20 5 0 1 -11 3 -25 5 -44 5 -117 16 -141 20
-13 3 -82 8 -154 11 -71 3 -145 7 -163 8 -18 1 -33 2 -35 1z"/>
<path d="M305 7685 c12 -33 29 -77 38 -97 8 -20 13 -39 9 -42 -3 -3 0 -6 6 -6
7 0 12 -6 12 -13 0 -11 59 -170 90 -242 5 -11 21 -51 35 -90 50 -130 96 -250
105 -270 5 -11 32 -81 60 -155 29 -74 58 -148 65 -165 7 -16 38 -97 69 -180
62 -163 65 -169 92 -235 11 -24 19 -47 19 -50 0 -5 78 -204 96 -245 4 -11 24
-63 44 -115 32 -85 73 -189 95 -245 5 -11 23 -58 41 -105 18 -47 36 -89 41
-94 4 -6 8 -19 8 -31 0 -12 4 -25 8 -31 8 -10 20 -38 102 -254 29 -74 56 -144
60 -155 20 -46 61 -151 63 -160 2 -9 78 -205 97 -250 5 -11 36 -92 70 -180 34
-88 65 -169 70 -180 5 -11 25 -63 45 -115 74 -192 193 -499 242 -625 66 -167
58 -157 120 -153 29 1 53 1 53 -2 0 -3 26 -4 57 -2 32 2 76 2 98 1 22 -1 46
-1 53 0 24 2 12 2 317 2 11 0 38 0 60 0 53 0 50 0 133 -2 40 -1 77 2 82 7 5 5
27 54 50 109 23 55 48 114 56 132 8 17 14 34 14 38 0 3 11 31 25 61 14 30 25
59 25 64 0 5 11 29 24 54 14 26 23 46 21 46 -4 0 17 51 70 175 7 17 18 46 26
65 7 19 22 58 35 85 12 28 60 145 107 260 47 116 91 224 98 240 7 17 13 32 14
35 1 3 9 22 18 44 9 21 17 40 17 42 0 2 9 23 19 47 11 23 27 64 37 90 9 26 21
50 25 53 5 3 9 11 9 18 0 8 10 35 21 62 l22 48 19 -45 c11 -24 25 -55 30 -69
6 -14 17 -38 24 -55 7 -16 50 -120 95 -230 163 -398 189 -460 199 -477 6 -10
10 -22 10 -28 0 -5 11 -33 24 -62 13 -29 38 -89 56 -133 18 -44 38 -93 45
-110 7 -16 62 -149 123 -295 106 -258 110 -265 138 -267 30 -1 113 -3 149 -3
63 1 102 1 115 1 75 -2 113 0 121 4 5 4 9 3 9 -2 0 -7 256 -9 347 -3 15 1 33
1 38 0 12 -2 99 1 102 4 3 3 152 384 230 586 30 80 63 161 72 180 9 19 16 37
16 40 0 6 22 64 36 95 8 18 66 168 156 400 19 50 40 101 46 115 5 14 11 28 12
33 2 4 4 9 5 12 1 3 3 8 4 13 2 10 115 300 132 337 7 17 31 77 53 135 75 199
172 445 186 477 8 17 15 34 15 37 0 4 93 243 125 321 4 11 9 25 11 30 1 6 30
79 63 163 34 84 61 155 61 158 0 3 7 20 15 37 8 18 35 86 60 152 25 66 49 129
54 140 10 22 23 60 21 60 -1 0 13 32 30 70 17 39 32 72 32 75 1 9 10 35 23 65
7 17 41 102 74 190 33 88 65 168 71 177 5 10 10 23 10 28 0 6 8 30 18 53 26
58 130 329 134 346 3 13 -75 15 -560 15 -310 1 -568 -1 -572 -4 -10 -6 -27
-47 -45 -110 -7 -25 -54 -164 -105 -310 -50 -146 -105 -305 -121 -355 -17 -49
-33 -97 -36 -105 -15 -39 -135 -387 -138 -400 -2 -8 -20 -62 -40 -120 -39
-112 -250 -727 -290 -845 -13 -38 -60 -176 -105 -305 -45 -129 -82 -239 -84
-245 -1 -5 -17 -55 -36 -110 -19 -55 -35 -102 -35 -105 -1 -3 -5 -12 -8 -20
-11 -24 -78 -223 -82 -242 -12 -55 -22 -43 -68 80 -27 70 -53 136 -58 147 -5
11 -22 56 -38 100 -16 44 -64 170 -106 280 -141 366 -157 410 -180 473 -12 35
-25 65 -28 68 -4 5 19 76 42 129 5 11 28 74 51 140 23 66 48 134 55 150 7 17
23 59 35 95 11 36 27 79 34 95 8 17 28 72 46 123 17 51 47 132 66 180 19 48
34 91 34 95 0 5 6 23 14 40 8 18 24 61 36 97 12 36 28 79 35 95 17 38 56 145
60 165 2 8 22 62 45 120 23 58 42 110 43 115 4 14 117 326 128 350 5 11 18 45
28 76 l19 56 -486 -1 -486 -1 -77 -235 c-42 -129 -130 -397 -195 -595 -65
-198 -118 -362 -119 -365 0 -3 -18 -60 -40 -127 -33 -104 -48 -136 -50 -105
-1 7 -23 77 -32 102 -3 8 -7 20 -9 25 -1 6 -19 60 -39 120 -20 61 -38 115 -39
120 -2 6 -6 17 -9 25 -7 17 -78 239 -82 255 -1 5 -5 17 -8 25 -7 16 -21 61
-161 491 l-86 266 -480 0 c-326 0 -480 -4 -480 -11 0 -9 197 -565 220 -621 23
-55 101 -273 106 -292 2 -12 14 -43 25 -70 11 -26 22 -55 24 -63 2 -8 19 -58
38 -110 20 -52 63 -174 97 -270 34 -96 68 -188 75 -205 7 -16 21 -55 31 -85
10 -30 22 -59 26 -64 4 -6 8 -20 8 -32 0 -13 4 -25 9 -28 4 -3 14 -27 21 -53
7 -27 16 -52 20 -58 3 -5 12 -30 20 -55 7 -25 17 -49 22 -54 19 -23 19 -23
-134 -436 -27 -74 -63 -171 -80 -215 -17 -44 -31 -84 -33 -90 -1 -5 -7 -21
-12 -35 -6 -14 -20 -50 -31 -80 -54 -148 -95 -259 -113 -302 -10 -26 -19 -54
-19 -62 0 -31 -17 -16 -35 29 -9 25 -18 52 -19 60 -1 8 -5 18 -9 21 -4 4 -7
17 -7 29 0 11 -4 25 -9 31 -6 7 -91 245 -97 274 0 3 -5 16 -11 30 -5 14 -36
102 -67 195 -32 94 -61 179 -66 190 -5 11 -14 38 -20 60 -6 22 -15 49 -20 60
-5 11 -23 63 -40 115 -18 52 -36 104 -40 115 -5 11 -27 76 -50 145 -24 69 -64
187 -91 263 -26 75 -46 137 -43 137 2 0 -3 11 -12 25 -9 14 -13 25 -10 25 3 0
-1 17 -10 38 -9 20 -27 71 -41 112 -13 41 -27 82 -30 90 -3 8 -7 20 -9 25 -4
17 -95 278 -103 300 -11 27 -52 148 -55 160 -2 11 -33 99 -46 130 -8 20 -43
125 -45 135 -2 12 -28 86 -34 95 -3 6 -6 15 -7 20 -1 6 -32 95 -68 200 -36
104 -66 190 -66 190 0 0 -256 0 -569 0 l-569 0 23 -60z"/>
</g>
</svg>
